<?xml version="1.0" standalone="no"?>
<!DOCTYPE svg PUBLIC "-//W3C//DTD SVG 20010904//EN"
 "http://www.w3.org/TR/2001/REC-SVG-20010904/DTD/svg10.dtd">
<svg version="1.0" xmlns="http://www.w3.org/2000/svg"
 width="300.000000pt" height="300.000000pt" viewBox="0 0 300.000000 300.000000"
 preserveAspectRatio="xMidYMid meet">
<metadata>
Created by potrace 1.11, written by Peter Selinger 2001-2013
</metadata>
<g transform="translate(0.000000,300.000000) scale(0.100000,-0.100000)"
fill="#000000" stroke="none">
<path d="M1390 2734 c-304 -38 -548 -158 -760 -373 -199 -201 -322 -457 -356
-739 -6 -57 -6 -273 1 -328 39 -301 153 -542 350 -739 99 -99 195 -167 324
-231 80 -39 214 -88 271 -99 53 -10 137 -24 180 -30 53 -6 284 -7 320 -1 14 3
49 7 78 10 175 19 405 98 584 203 86 50 238 162 239 176 6 51 4 1054 -2 1062
-5 6 -188 9 -521 8 -282 0 -521 -1 -530 -2 -17 -1 -18 -19 -18 -234 l0 -233
258 1 c141 0 264 -1 273 -3 14 -3 16 -26 16 -178 l0 -173 -36 -24 c-82 -53
-218 -101 -324 -114 -92 -11 -266 -8 -328 7 -384 92 -613 447 -566 875 24 211
140 413 306 533 126 92 250 133 401 134 216 1 386 -57 567 -192 l77 -57 54 66
c30 36 71 86 92 111 124 146 190 229 190 236 -1 16 -146 117 -251 176 -96 54
-276 120 -359 132 -19 3 -45 8 -57 10 -100 21 -346 26 -473 10z"/>
</g>
</svg>
